# xmcd
#
# Track frame offsets: 
#        150
#        15339
#        31147
#        49852
#        63099
#        77197
#        95292
#        110060
#        123817
#        139204
#        152249
#        166630
#        186361
#        208719
#        222103
#        234087
#        250430
#        261665
#        280035
#        290022
#
# Disc length: 4110 seconds
#
# Revision: 0
# Processed by: cddbd v1.5.2PL0 Copyright (c) Steve Scherf et al.
# Submitted via: ExactAudioCopy v0.99pb4
#
DISCID=1a100c14
DTITLE=Various Artist - Various - Radio 2 - De Topcollectie - Vlaamse klassie
DTITLE=kers - CD 3
DYEAR=2014
DGENRE=Chanson
TTITLE0=Wim Soutaer - Allemaal
TTITLE1=Christoff - Zeven Zonden
TTITLE2=Jo Vally and Paul Anderson - Aan Alle Vrouwen
TTITLE3=Laïs - 't Smidje
TTITLE4=Margriet Hermans - Een Vriend
TTITLE5=Joe Harris - Drink Rode Wijn
TTITLE6=Superdiesel - Ticket Naar De Zon
TTITLE7=Kamiel Spiessens - Het Isj Nie Moeilijk, Het Isj Gemakkelijk!
TTITLE8=Splinter - Ik Laat Je Nooit Meer Gaan
TTITLE9=Eva De Roovere - Fantastig Toch
TTITLE10=Olli En Vijf Na Twaalf - Zot Van A
TTITLE11=Luk Vankessel - Mia
TTITLE12=Mozaïek - Wat Zie Ik Je Graag
TTITLE13=Ernst - Geef Mij Je Nummer
TTITLE14=Bob Davidse - Anne-Marie
TTITLE15=Arne Vanhaecke - Dronken Romantiek
TTITLE16=Eddy Wally - Chérie
TTITLE17=Philippe Robrecht - Vurige Tongen
TTITLE18=Marc Dex - O, Clown!
TTITLE19=Marva - Herinneringen
EXTD=
EXTT0=
EXTT1=
EXTT2=
EXTT3=
EXTT4=
EXTT5=
EXTT6=
EXTT7=
EXTT8=
EXTT9=
EXTT10=
EXTT11=
EXTT12=
EXTT13=
EXTT14=
EXTT15=
EXTT16=
EXTT17=
EXTT18=
EXTT19=
PLAYORDER=
